PathFileType	4	(X/Y/Z)	traj.trc
DataRate	CameraRate	NumFrames	NumMarkers	Units	OrigDataRate	OrigDataStartFrame	OrigNumFrames
30.00	30.00	100	1	mm	30.00	1	100
Frame#	Time	wrist		
		X1	Y1	Z1

0	0.0	200.0	400.0	300.0
1	0.10101010101010101	200.0	400.0	300.0
2	0.20202020202020202	199.9985003060756	400.00599877569766	299.9985003060756
3	0.30303030303030304	199.99112363583524	400.03550545665917	299.9911236358352
4	0.40404040404040403	199.97229470066193	400.11082119735227	299.97229470066196
5	0.5050505050505051	199.93679424090053	400.252823036398	299.9367942409005
6	0.6060606060606061	199.87975153051073	400.4809938779571	299.8797515305107
7	0.7070707070707071	199.79663688172099	400.8134524731162	299.796636881721
8	0.8080808080808081	199.68325414968152	401.266983401274	299.6832541496815
9	0.9090909090909091	199.53573323711808	401.85706705152774	299.53573323711805
10	1.0101010101010102	199.3505225989852	402.5979096040593	299.3505225989852
11	1.1111111111111112	199.12438174711968	403.50247301152126	299.1243817471197
12	1.2121212121212122	198.8543737548941	404.5825049804236	298.8543737548941
13	1.3131313131313131	198.53785776187016	405.84856895251943	298.53785776187016
14	1.4141414141414141	198.1724814784521	407.31007408619155	298.1724814784521
15	1.5151515151515151	197.75617369054032	408.97530523783877	297.7561736905403
16	1.6161616161616161	197.28713676418457	410.8514529432618	297.28713676418454
17	1.7171717171717171	196.76383915023757	412.9446433990497	296.7638391502376
18	1.8181818181818181	196.1850078890084	415.2599684439664	296.18500788900843
19	1.9191919191919191	195.54962111491594	417.8015155403363	295.54962111491596
20	2.0202020202020203	194.85690056114225	420.57239775543104	294.8569005611422
21	2.121212121212121	194.10630406428612	423.5747837428557	294.10630406428606
22	2.2222222222222223	193.29751806901635	426.80992772393466	293.29751806901635
23	2.323232323232323	192.4304501327254	430.2781994690984	292.4304501327254
24	2.4242424242424243	191.50522143018273	433.9791142792692	291.5052214301827
25	2.525252525252525	190.52215925818805	437.9113629672478	290.522159258188
26	2.6262626262626263	189.48178954022515	442.0728418390995	289.4817895402251
27	2.727272727272727	188.384829331115	446.46068267554017	288.384829331115
28	2.8282828282828283	187.23217932166926	451.071282713323	287.23217932166926
29	2.929292929292929	186.024916343344	455.90033462662416	286.02491634334393
30	3.0303030303030303	184.76428587289263	460.9428565084296	284.7642858728926
31	3.131313131313131	183.4516945370198	466.1932218519209	283.4516945370198
32	3.2323232323232323	182.0887026170346	471.64518953186155	282.08870261703464
33	3.3333333333333335	180.67701655350413	477.29193378598353	280.6770165535041
34	3.4343434343434343	179.21848145090672	483.12607419637317	279.2184814509067
35	3.5353535353535355	177.71507358228567	489.1397056708574	277.71507358228564
36	3.6363636363636362	176.1688928939024	495.3244284243904	276.1688928939024
37	3.7373737373737375	174.58215550989019	501.6713779604394	274.5821555098902
38	3.8383838383838382	172.95718623690726	508.1712550523712	272.95718623690726
39	3.9393939393939394	171.29641106879052	514.8143557248379	271.29641106879046
40	4.040404040404041	169.6023496912089	521.5906012351644	269.6023496912089
41	4.141414141414141	167.87760798631678	528.489568054733	267.8776079863168
42	4.242424242424242	166.1248705374073	535.5005178503709	266.1248705374073
43	4.343434343434343	164.3468931335661	542.6124274657355	264.3468931335661
44	4.444444444444445	162.54649527432454	549.8140189027018	262.5464952743245
45	4.545454545454545	160.72655267431313	557.0937893027476	260.7265526743131
46	4.646464646464646	158.88998976791504	564.4400409283398	258.889989767915
47	4.747474747474747	157.03977221391958	571.8409111443218	257.03977221391955
48	4.848484848484849	155.17889940017554	579.284402399298	255.1788994001755
49	4.94949494949495	153.31039694824466	586.7584122070213	253.31039694824463
50	5.05050505050505	151.4373092180552	594.2507631277794	251.4373092180552
51	5.151515151515151	149.56269181255502	601.7492327497799	249.562691812555
52	5.252525252525253	147.6896040823655	609.241583670538	247.68960408236552
53	5.353535353535354	145.82110163043467	616.7155934782616	245.82110163043464
54	5.454545454545454	143.9602288166906	624.1590847332377	243.9602288166906
55	5.555555555555555	142.1100112626951	631.5599549492194	242.11001126269514
56	5.656565656565657	140.27344835629708	638.9062065748119	240.27344835629705
57	5.757575757575758	138.4535057562856	646.1859769748575	238.45350575628564
58	5.858585858585858	136.65310789704404	653.3875684118237	236.65310789704404
59	5.959595959595959	134.87513049320287	660.4994780271885	234.87513049320285
60	6.0606060606060606	133.1223930442934	667.5104278228263	233.1223930442934
61	6.161616161616162	131.39765133940128	674.409394642395	231.39765133940128
62	6.262626262626262	129.70358996181966	681.1856401527215	229.70358996181966
63	6.363636363636363	128.04281479370295	687.8287408251883	228.04281479370292
64	6.4646464646464645	126.41784552072	694.32861791712	226.41784552072
65	6.565656565656566	124.83110813670775	700.675567453169	224.83110813670777
66	6.666666666666667	123.28492744832451	706.8602902067021	223.2849274483245
67	6.767676767676767	121.78151957970344	712.8739216811864	221.78151957970343
68	6.8686868686868685	120.32298447710605	718.7080620915759	220.32298447710605
69	6.96969696969697	118.91129841357555	724.354806345698	218.91129841357554
70	7.070707070707071	117.54830649359037	729.8067740256387	217.54830649359036
71	7.171717171717171	116.23571515771755	735.0571393691299	216.23571515771755
72	7.2727272727272725	114.97508468726619	740.0996612509352	214.9750846872662
73	7.373737373737374	113.7678217089409	744.9287131642365	213.76782170894091
74	7.474747474747475	112.61517169949519	749.5393132020192	212.6151716994952
75	7.575757575757575	111.51821149038501	753.92715403846	211.51821149038503
76	7.6767676767676765	110.47784177242211	758.0886329103116	210.47784177242212
77	7.777777777777778	109.49477960042745	762.0208815982903	209.49477960042745
78	7.878787878787879	108.56955089788474	765.721796408461	208.56955089788477
79	7.979797979797979	107.7024829615938	769.1900681536248	207.70248296159383
80	8.080808080808081	106.89369696632406	772.4252121347039	206.89369696632406
81	8.181818181818182	106.14310046946792	775.4275981221283	206.14310046946792
82	8.282828282828282	105.45037991569423	778.1984803372231	205.45037991569424
83	8.383838383838384	104.81499314160175	780.740027433593	204.81499314160175
84	8.484848484848484	104.2361618803726	783.0553524785097	204.2361618803726
85	8.585858585858587	103.71286426642563	785.1485429342976	203.7128642664256
86	8.686868686868687	103.24382734006987	787.0246906397206	203.24382734006988
87	8.787878787878787	102.82751955215808	788.6899217913677	202.8275195521581
88	8.88888888888889	102.46214326874004	790.1514269250399	202.46214326874005
89	8.98989898989899	102.14562727571608	791.4174908971357	202.1456272757161
90	9.09090909090909	101.87561928349051	792.497522866038	201.87561928349052
91	9.191919191919192	101.64947843162501	793.4020862735001	201.649478431625
92	9.292929292929292	101.46426779349214	794.1429288260315	201.46426779349213
93	9.393939393939394	101.3167468809287	794.7330124762852	201.31674688092872
94	9.494949494949495	101.20336414888925	795.1865434044431	201.20336414888925
95	9.595959595959595	101.12024950009949	795.5190019996021	201.1202495000995
96	9.696969696969697	101.06320678970971	795.7471728411612	201.06320678970974
97	9.797979797979798	101.02770632994826	795.889174680207	201.02770632994827
98	9.8989898989899	101.00887739477497	795.9644904209002	201.008877394775
99	10.0	101.0015007245346	795.9939971018617	201.0015007245346
